<svg width="215" height="174" viewBox="0 0 215 174" fill="none" xmlns="http://www.w3.org/2000/svg">
<g filter="url(#filter0_d_1195_700)">
<rect width="214.5" height="124" rx="16" fill="url(#paint0_linear_1195_700)"/>
<rect x="150.5" y="16" width="48" height="48" rx="6" fill="white" fill-opacity="0.1"/>
<g clip-path="url(#clip0_1195_700)">
<path fill-rule="evenodd" clip-rule="evenodd" d="M162.857 36.0994C162.857 35.3874 163.434 34.8103 164.146 34.8103C167.016 34.8103 169.377 37.1066 169.377 39.981C169.377 42.8556 167.016 45.1517 164.146 45.1517C163.434 45.1517 162.857 44.5746 162.857 43.8627C162.857 43.1507 163.434 42.5736 164.146 42.5736C165.63 42.5736 166.799 41.3941 166.799 39.981C166.799 38.568 165.63 37.3884 164.146 37.3884C163.434 37.3884 162.857 36.8113 162.857 36.0994Z" fill="white"/>
<path fill-rule="evenodd" clip-rule="evenodd" d="M164.263 26.2566C164.969 26.1625 165.617 26.6584 165.711 27.3641C165.938 29.061 167.422 30.399 169.249 30.399C169.961 30.399 170.538 30.9762 170.538 31.6881C170.538 32.4 169.961 32.9771 169.249 32.9771C166.143 32.9771 163.554 30.6959 163.156 27.7046C163.062 26.9989 163.558 26.3506 164.263 26.2566Z" fill="white"/>
<path fill-rule="evenodd" clip-rule="evenodd" d="M169.277 49.0955C167.085 49.0955 165.342 50.84 165.342 52.9498C165.342 53.1375 165.356 53.3212 165.382 53.5005C165.484 54.205 164.996 54.8593 164.292 54.9619C163.587 55.0645 162.933 54.5765 162.83 53.872C162.786 53.5703 162.764 53.2623 162.764 52.9498C162.764 49.3785 165.699 46.5173 169.277 46.5173C169.989 46.5173 170.566 47.0945 170.566 47.8064C170.566 48.5183 169.989 49.0955 169.277 49.0955Z" fill="white"/>
<path fill-rule="evenodd" clip-rule="evenodd" d="M173.218 26.7423C173.292 23.3293 176.12 20.6177 179.557 20.6177C182.872 20.6177 185.62 23.1394 185.879 26.3801C188.74 26.9757 190.915 29.4789 190.915 32.5099C190.915 33.2962 190.768 34.0487 190.5 34.7416C192.897 35.6293 194.616 37.9096 194.616 40.6072C194.616 43.17 193.064 45.3556 190.854 46.3286C191.158 47.0611 191.327 47.8635 191.327 48.7044C191.327 51.8518 188.926 54.4032 185.934 54.8911C185.098 57.5051 182.624 59.3824 179.723 59.3824C176.145 59.3824 173.21 56.5212 173.21 52.9499C173.21 52.238 173.787 51.6608 174.499 51.6608C175.211 51.6608 175.788 52.238 175.788 52.9499C175.788 55.0598 177.531 56.8043 179.723 56.8043C181.72 56.8043 183.349 55.3531 183.618 53.5006C183.711 52.8671 184.254 52.3973 184.894 52.3973C187.019 52.3973 188.748 50.6939 188.748 48.7044C188.748 47.8197 188.432 47.0088 187.898 46.3711C187.594 46.0082 187.514 45.5081 187.689 45.0684C187.863 44.6286 188.265 44.3198 188.734 44.2639C190.612 44.0406 192.038 42.4733 192.038 40.6072C192.038 38.6457 190.462 37.0138 188.445 36.9263C187.957 36.9051 187.523 36.6097 187.324 36.1634C187.125 35.7171 187.195 35.1967 187.506 34.8194C188.028 34.1848 188.337 33.3832 188.337 32.5099C188.337 30.4955 186.666 28.8236 184.566 28.8236C184.195 28.8236 183.841 28.6633 183.597 28.3838C183.352 28.1043 183.24 27.7327 183.289 27.3644C183.31 27.2067 183.321 27.0454 183.321 26.8811C183.321 24.8646 181.655 23.1958 179.557 23.1958C177.46 23.1958 175.794 24.8645 175.794 26.8811C175.794 27.5931 175.217 28.1702 174.505 28.1702H174.499C173.787 28.1702 173.21 27.5931 173.21 26.8811C173.21 26.8342 173.213 26.7879 173.218 26.7423Z" fill="white"/>
<path fill-rule="evenodd" clip-rule="evenodd" d="M175.898 26.7423C175.824 23.3293 172.996 20.6177 169.559 20.6177C166.244 20.6177 163.496 23.1394 163.237 26.3801C160.376 26.9757 158.201 29.4789 158.201 32.5099C158.201 33.2962 158.348 34.0487 158.616 34.7416C156.219 35.6293 154.5 37.9096 154.5 40.6072C154.5 43.17 156.053 45.3556 158.262 46.3286C157.958 47.0611 157.79 47.8635 157.79 48.7044C157.79 51.8518 160.19 54.4032 163.182 54.8911C164.018 57.5051 166.492 59.3824 169.393 59.3824C172.971 59.3824 175.906 56.5212 175.906 52.9499C175.906 52.238 175.329 51.6608 174.617 51.6608C173.905 51.6608 173.328 52.238 173.328 52.9499C173.328 55.0598 171.585 56.8043 169.393 56.8043C167.396 56.8043 165.767 55.3531 165.498 53.5006C165.405 52.8671 164.862 52.3973 164.222 52.3973C162.097 52.3973 160.368 50.6939 160.368 48.7044C160.368 47.8197 160.685 47.0088 161.218 46.3711C161.522 46.0082 161.602 45.5081 161.427 45.0684C161.253 44.6286 160.851 44.3198 160.382 44.2639C158.504 44.0406 157.078 42.4733 157.078 40.6072C157.078 38.6457 158.654 37.0138 160.671 36.9263C161.159 36.9051 161.593 36.6097 161.792 36.1634C161.991 35.7171 161.921 35.1967 161.61 34.8194C161.088 34.1848 160.779 33.3832 160.779 32.5099C160.779 30.4955 162.45 28.8236 164.55 28.8236C164.921 28.8236 165.275 28.6633 165.519 28.3838C165.764 28.1043 165.876 27.7327 165.827 27.3644C165.806 27.2067 165.796 27.0454 165.796 26.8811C165.796 24.8646 167.461 23.1958 169.559 23.1958C171.656 23.1958 173.322 24.8645 173.322 26.8811C173.322 27.5931 173.899 28.1702 174.611 28.1702H174.617C175.329 28.1702 175.906 27.5931 175.906 26.8811C175.906 26.8342 175.903 26.7879 175.898 26.7423Z" fill="white"/>
<path fill-rule="evenodd" clip-rule="evenodd" d="M179.623 39.981C179.623 37.1066 181.984 34.8103 184.854 34.8103C185.566 34.8103 186.143 35.3874 186.143 36.0994C186.143 36.8113 185.566 37.3884 184.854 37.3884C183.37 37.3884 182.201 38.568 182.201 39.981C182.201 41.3941 183.37 42.5736 184.854 42.5736C185.566 42.5736 186.143 43.1507 186.143 43.8627C186.143 44.5746 185.566 45.1517 184.854 45.1517C181.984 45.1517 179.623 42.8556 179.623 39.981Z" fill="white"/>
<path fill-rule="evenodd" clip-rule="evenodd" d="M184.737 26.2566C185.443 26.3506 185.938 26.9989 185.844 27.7046C185.446 30.6959 182.857 32.9771 179.751 32.9771C179.04 32.9771 178.462 32.4 178.462 31.6881C178.462 30.9762 179.04 30.399 179.751 30.399C181.578 30.399 183.063 29.061 183.289 27.3641C183.383 26.6584 184.031 26.1625 184.737 26.2566Z" fill="white"/>
<path fill-rule="evenodd" clip-rule="evenodd" d="M178.434 47.8064C178.434 47.0945 179.011 46.5173 179.723 46.5173C183.301 46.5173 186.236 49.3785 186.236 52.9498C186.236 53.2623 186.214 53.5703 186.17 53.872C186.067 54.5765 185.413 55.0645 184.708 54.9619C184.004 54.8593 183.516 54.205 183.618 53.5005C183.645 53.3212 183.658 53.1375 183.658 52.9498C183.658 50.84 181.915 49.0955 179.723 49.0955C179.011 49.0955 178.434 48.5183 178.434 47.8064Z" fill="white"/>
</g>
<path d="M151.292 86.228C151.292 85.88 151.334 85.556 151.418 85.256C151.502 84.944 151.622 84.644 151.778 84.356C151.946 84.068 152.144 83.78 152.372 83.492C152.6 83.192 152.864 82.88 153.164 82.556L152.336 81.728L153.866 80.09C154.61 80.81 155.228 81.44 155.72 81.98C156.224 82.52 156.62 83.012 156.908 83.456C157.208 83.9 157.418 84.32 157.538 84.716C157.67 85.112 157.736 85.52 157.736 85.94C157.736 86.384 157.652 86.798 157.484 87.182C157.316 87.554 157.088 87.878 156.8 88.154C156.512 88.418 156.164 88.628 155.756 88.784C155.36 88.928 154.928 89 154.46 89C153.992 89 153.56 88.934 153.164 88.802C152.78 88.67 152.45 88.484 152.174 88.244C151.898 88.004 151.682 87.716 151.526 87.38C151.37 87.032 151.292 86.648 151.292 86.228ZM155.45 85.706C155.45 85.622 155.438 85.538 155.414 85.454C155.402 85.37 155.366 85.274 155.306 85.166C155.246 85.046 155.15 84.908 155.018 84.752C154.898 84.584 154.724 84.386 154.496 84.158C154.076 84.578 153.812 84.908 153.704 85.148C153.608 85.376 153.56 85.568 153.56 85.724C153.56 85.928 153.632 86.114 153.776 86.282C153.932 86.45 154.178 86.534 154.514 86.534C154.85 86.534 155.09 86.45 155.234 86.282C155.378 86.114 155.45 85.922 155.45 85.706ZM162.205 88.712C162.205 89.324 162.091 89.912 161.863 90.476C161.647 91.04 161.341 91.532 160.945 91.952C160.561 92.384 160.099 92.726 159.559 92.978C159.031 93.23 158.455 93.356 157.831 93.356H156.643L156.553 90.89H157.237C157.741 90.89 158.167 90.824 158.515 90.692C158.851 90.572 159.121 90.41 159.325 90.206C159.541 90.002 159.691 89.768 159.775 89.504C159.871 89.252 159.919 88.988 159.919 88.712V83.654H162.205V88.712ZM165.678 90.89C166.482 90.89 167.058 90.704 167.406 90.332C167.754 89.972 167.958 89.528 168.018 89H167.172C166.548 89 166.038 88.934 165.642 88.802C165.246 88.67 164.934 88.472 164.706 88.208C164.478 87.944 164.316 87.626 164.22 87.254C164.136 86.87 164.094 86.432 164.094 85.94C164.094 85.472 164.16 85.028 164.292 84.608C164.424 84.176 164.616 83.804 164.868 83.492C165.132 83.18 165.456 82.934 165.84 82.754C166.236 82.562 166.692 82.466 167.208 82.466C167.616 82.466 168 82.532 168.36 82.664C168.732 82.796 169.056 83.006 169.332 83.294C169.608 83.582 169.824 83.96 169.98 84.428C170.148 84.896 170.232 85.466 170.232 86.138V88.712C170.232 89.324 170.13 89.912 169.926 90.476C169.722 91.04 169.428 91.532 169.044 91.952C168.66 92.384 168.192 92.726 167.64 92.978C167.088 93.23 166.464 93.356 165.768 93.356H164.004L163.896 90.89H165.678ZM166.272 85.76C166.272 86.048 166.332 86.252 166.452 86.372C166.584 86.48 166.824 86.534 167.172 86.534H168.054V86.03C168.054 85.574 167.976 85.262 167.82 85.094C167.676 84.926 167.448 84.842 167.136 84.842C166.56 84.842 166.272 85.148 166.272 85.76ZM174.791 89C174.443 89 174.113 88.958 173.801 88.874C173.489 88.778 173.213 88.622 172.973 88.406C172.745 88.19 172.559 87.908 172.415 87.56C172.283 87.2 172.217 86.756 172.217 86.228V77.84H174.503V85.634C174.503 86.234 174.767 86.534 175.295 86.534H175.781C176.045 86.534 176.177 86.93 176.177 87.722C176.177 88.574 176.045 89 175.781 89H174.791ZM176.677 86.534C177.337 86.534 177.667 86.198 177.667 85.526V83.654H179.935V85.526C179.935 85.874 180.037 86.132 180.241 86.3C180.457 86.456 180.715 86.534 181.015 86.534C181.411 86.534 181.693 86.456 181.861 86.3C182.029 86.132 182.113 85.874 182.113 85.526V83.654H184.399V85.526C184.399 85.874 184.483 86.132 184.651 86.3C184.831 86.456 185.041 86.534 185.281 86.534C185.869 86.534 186.163 86.198 186.163 85.526V83.654H188.449V85.526C188.449 85.874 188.557 86.132 188.773 86.3C188.989 86.456 189.247 86.534 189.547 86.534H190.033C190.189 86.534 190.291 86.63 190.339 86.822C190.399 87.014 190.429 87.314 190.429 87.722C190.429 88.166 190.399 88.49 190.339 88.694C190.291 88.898 190.189 89 190.033 89H189.547C189.091 89 188.671 88.934 188.287 88.802C187.903 88.658 187.561 88.358 187.261 87.902C186.961 88.358 186.631 88.658 186.271 88.802C185.911 88.934 185.581 89 185.281 89C184.885 89 184.513 88.934 184.165 88.802C183.829 88.658 183.511 88.358 183.211 87.902C182.911 88.358 182.569 88.658 182.185 88.802C181.801 88.934 181.411 89 181.015 89C180.571 89 180.157 88.934 179.773 88.802C179.389 88.658 179.047 88.358 178.747 87.902C178.447 88.358 178.123 88.658 177.775 88.802C177.439 88.934 177.073 89 176.677 89H175.777C175.621 89 175.519 88.904 175.471 88.712C175.411 88.508 175.381 88.208 175.381 87.812C175.381 87.356 175.411 87.032 175.471 86.84C175.519 86.636 175.621 86.534 175.777 86.534H176.677ZM184.309 78.902H182.113V76.832H184.309V78.902ZM185.677 81.674H183.499V79.586H185.677V81.674ZM182.905 81.674H180.727V79.586H182.905V81.674ZM190.123 86.534C190.483 86.534 190.771 86.474 190.987 86.354C191.203 86.222 191.311 85.982 191.311 85.634V85.436C191.311 84.968 191.383 84.536 191.527 84.14C191.671 83.732 191.875 83.384 192.139 83.096C192.403 82.808 192.727 82.58 193.111 82.412C193.495 82.244 193.921 82.16 194.389 82.16C194.881 82.16 195.319 82.244 195.703 82.412C196.087 82.58 196.405 82.814 196.657 83.114C196.921 83.402 197.119 83.756 197.251 84.176C197.395 84.584 197.467 85.034 197.467 85.526C197.467 86.63 197.185 87.488 196.621 88.1C196.069 88.7 195.325 89 194.389 89C193.921 89 193.465 88.904 193.021 88.712C192.589 88.52 192.271 88.25 192.067 87.902C191.839 88.31 191.545 88.598 191.185 88.766C190.825 88.922 190.471 89 190.123 89H190.033C189.877 89 189.775 88.904 189.727 88.712C189.667 88.508 189.637 88.208 189.637 87.812C189.637 87.356 189.667 87.032 189.727 86.84C189.775 86.636 189.877 86.534 190.033 86.534H190.123ZM195.271 85.634C195.271 85.382 195.211 85.154 195.091 84.95C194.971 84.746 194.737 84.644 194.389 84.644C194.041 84.644 193.807 84.746 193.687 84.95C193.567 85.154 193.507 85.382 193.507 85.634C193.507 86.234 193.801 86.534 194.389 86.534C194.977 86.534 195.271 86.234 195.271 85.634Z" fill="white"/>
<path opacity="0.4" d="M16 108H198.5" stroke="white" stroke-linecap="round"/>
</g>
<defs>
<filter id="filter0_d_1195_700" x="0" y="0" width="214.5" height="174" filterUnits="userSpaceOnUse" color-interpolation-filters="sRGB">
<feFlood flood-opacity="0" result="BackgroundImageFix"/>
<feColorMatrix in="SourceAlpha" type="matrix" values="0 0 0 0 0 0 0 0 0 0 0 0 0 0 0 0 0 0 127 0" result="hardAlpha"/>
<feMorphology radius="44" operator="erode" in="SourceAlpha" result="effect1_dropShadow_1195_700"/>
<feOffset dy="54"/>
<feGaussianBlur stdDeviation="20"/>
<feColorMatrix type="matrix" values="0 0 0 0 0.719248 0 0 0 0 0.6625 0 0 0 0 1 0 0 0 1 0"/>
<feBlend mode="normal" in2="BackgroundImageFix" result="effect1_dropShadow_1195_700"/>
<feBlend mode="normal" in="SourceGraphic" in2="effect1_dropShadow_1195_700" result="shape"/>
</filter>
<linearGradient id="paint0_linear_1195_700" x1="214.5" y1="62" x2="0" y2="62" gradientUnits="userSpaceOnUse">
<stop stop-color="#8A75F8"/>
<stop offset="1" stop-color="#AA98FD"/>
</linearGradient>
<clipPath id="clip0_1195_700">
<rect width="40" height="40" fill="white" transform="translate(154.5 20)"/>
</clipPath>
</defs>
</svg>
