<svg width="41" height="40" viewBox="0 0 41 40" fill="none" xmlns="http://www.w3.org/2000/svg">
<g id="Group">
<g id="Group_2">
<path id="Vector (Stroke)" fill-rule="evenodd" clip-rule="evenodd" d="M8.85693 16.0994C8.85693 15.3874 9.43407 14.8103 10.146 14.8103C13.0163 14.8103 15.3775 17.1066 15.3775 19.981C15.3775 22.8556 13.0163 25.1517 10.146 25.1517C9.43407 25.1517 8.85693 24.5746 8.85693 23.8627C8.85693 23.1507 9.43407 22.5736 10.146 22.5736C11.6304 22.5736 12.7993 21.3941 12.7993 19.981C12.7993 18.568 11.6304 17.3884 10.146 17.3884C9.43407 17.3884 8.85693 16.8113 8.85693 16.0994Z" fill="white"/>
<path id="Vector (Stroke)_2" fill-rule="evenodd" clip-rule="evenodd" d="M10.2633 6.25656C10.969 6.16252 11.6173 6.65836 11.7114 7.36405C11.9375 9.061 13.4221 10.399 15.2487 10.399C15.9607 10.399 16.5378 10.9762 16.5378 11.6881C16.5378 12.4 15.9607 12.9771 15.2487 12.9771C12.1435 12.9771 9.55448 10.6959 9.15585 7.7046C9.06181 6.99891 9.55765 6.3506 10.2633 6.25656Z" fill="white"/>
<path id="Vector (Stroke)_3" fill-rule="evenodd" clip-rule="evenodd" d="M15.2768 29.0955C13.0847 29.0955 11.3419 30.84 11.3419 32.9498C11.3419 33.1375 11.3555 33.3212 11.3816 33.5005C11.4842 34.205 10.9963 34.8593 10.2918 34.9619C9.58731 35.0645 8.93303 34.5765 8.83042 33.872C8.78647 33.5703 8.76379 33.2623 8.76379 32.9498C8.76379 29.3785 11.6987 26.5173 15.2768 26.5173C15.9887 26.5173 16.5658 27.0945 16.5658 27.8064C16.5658 28.5183 15.9887 29.0955 15.2768 29.0955Z" fill="white"/>
</g>
<g id="Group_3">
<path id="Vector (Stroke)_4" fill-rule="evenodd" clip-rule="evenodd" d="M19.2176 6.74234C19.2924 3.32931 22.1205 0.617676 25.5573 0.617676C28.8716 0.617676 31.6199 3.13939 31.8787 6.38008C34.74 6.9757 36.9154 9.47887 36.9154 12.5099C36.9154 13.2962 36.768 14.0487 36.5001 14.7416C38.8967 15.6293 40.6161 17.9096 40.6161 20.6072C40.6161 23.17 39.0636 25.3556 36.854 26.3286C37.1583 27.0611 37.3266 27.8635 37.3266 28.7044C37.3266 31.8518 34.9261 34.4032 31.9342 34.8911C31.098 37.5051 28.6239 39.3824 25.7233 39.3824C22.1452 39.3824 19.2103 36.5212 19.2103 32.9499C19.2103 32.238 19.7874 31.6608 20.4993 31.6608C21.2113 31.6608 21.7884 32.238 21.7884 32.9499C21.7884 35.0598 23.5312 36.8043 25.7233 36.8043C27.72 36.8043 29.3486 35.3531 29.6184 33.5006C29.7106 32.8671 30.2538 32.3973 30.894 32.3973C33.0191 32.3973 34.7484 30.6939 34.7484 28.7044C34.7484 27.8197 34.4315 27.0088 33.898 26.3711C33.5944 26.0082 33.5141 25.5081 33.6886 25.0684C33.8632 24.6286 34.2646 24.3198 34.7345 24.2639C36.6116 24.0406 38.038 22.4733 38.038 20.6072C38.038 18.6457 36.4619 17.0138 34.4451 16.9263C33.9569 16.9051 33.5227 16.6097 33.3237 16.1634C33.1247 15.7171 33.1951 15.1967 33.5056 14.8194C34.0277 14.1848 34.3372 13.3832 34.3372 12.5099C34.3372 10.4955 32.666 8.82357 30.5664 8.82357C30.1949 8.82357 29.8414 8.66327 29.5967 8.38376C29.3519 8.10426 29.2396 7.73273 29.2886 7.36445C29.3096 7.20672 29.3205 7.04545 29.3205 6.88113C29.3205 4.86456 27.6547 3.1958 25.5573 3.1958C23.46 3.1958 21.7942 4.86454 21.7942 6.88113C21.7942 7.59306 21.2171 8.17019 20.5051 8.17019H20.4993C19.7873 8.17019 19.2102 7.59306 19.2102 6.88113C19.2102 6.83424 19.2127 6.78794 19.2176 6.74234Z" fill="white"/>
<path id="Vector (Stroke)_5" fill-rule="evenodd" clip-rule="evenodd" d="M21.8985 6.74234C21.8237 3.32931 18.9956 0.617676 15.5588 0.617676C12.2445 0.617676 9.4962 3.13939 9.23735 6.38008C6.37609 6.9757 4.20073 9.47887 4.20073 12.5099C4.20073 13.2962 4.34805 14.0487 4.61597 14.7416C2.21943 15.6293 0.499945 17.9096 0.499945 20.6072C0.499945 23.17 2.05254 25.3556 4.26205 26.3286C3.9578 27.0611 3.78952 27.8635 3.78952 28.7044C3.78952 31.8518 6.19 34.4032 9.18187 34.8911C10.0181 37.5051 12.4922 39.3824 15.3928 39.3824C18.9709 39.3824 21.9058 36.5212 21.9058 32.9499C21.9058 32.238 21.3287 31.6608 20.6167 31.6608C19.9048 31.6608 19.3277 32.238 19.3277 32.9499C19.3277 35.0598 17.5849 36.8043 15.3928 36.8043C13.3961 36.8043 11.7674 35.3531 11.4977 33.5006C11.4055 32.8671 10.8623 32.3973 10.2221 32.3973C8.09701 32.3973 6.36764 30.6939 6.36764 28.7044C6.36764 27.8197 6.68456 27.0088 7.21805 26.3711C7.52164 26.0082 7.60203 25.5081 7.42747 25.0684C7.25291 24.6286 6.85146 24.3198 6.38163 24.2639C4.50446 24.0406 3.07807 22.4733 3.07807 20.6072C3.07807 18.6457 4.65418 17.0138 6.67098 16.9263C7.15915 16.9051 7.59338 16.6097 7.79238 16.1634C7.99138 15.7171 7.92095 15.1967 7.61049 14.8194C7.08835 14.1848 6.77886 13.3832 6.77886 12.5099C6.77886 10.4955 8.45013 8.82357 10.5497 8.82357C10.9212 8.82357 11.2746 8.66327 11.5194 8.38376C11.7642 8.10426 11.8765 7.73273 11.8274 7.36445C11.8065 7.20672 11.7956 7.04545 11.7956 6.88113C11.7956 4.86456 13.4614 3.1958 15.5588 3.1958C17.6561 3.1958 19.3219 4.86454 19.3219 6.88113C19.3219 7.59306 19.899 8.17019 20.611 8.17019H20.6168C21.3288 8.17019 21.9059 7.59306 21.9059 6.88113C21.9059 6.83424 21.9034 6.78794 21.8985 6.74234Z" fill="white"/>
<path id="Vector (Stroke)_6" fill-rule="evenodd" clip-rule="evenodd" d="M25.6226 19.981C25.6226 17.1066 27.9837 14.8103 30.854 14.8103C31.566 14.8103 32.1431 15.3874 32.1431 16.0994C32.1431 16.8113 31.566 17.3884 30.854 17.3884C29.3697 17.3884 28.2007 18.568 28.2007 19.981C28.2007 21.3941 29.3696 22.5736 30.854 22.5736C31.566 22.5736 32.1431 23.1507 32.1431 23.8627C32.1431 24.5746 31.566 25.1517 30.854 25.1517C27.9837 25.1517 25.6226 22.8556 25.6226 19.981Z" fill="white"/>
<path id="Vector (Stroke)_7" fill-rule="evenodd" clip-rule="evenodd" d="M30.7369 6.25656C31.4425 6.3506 31.9384 6.99891 31.8443 7.7046C31.4457 10.6959 28.8567 12.9771 25.7515 12.9771C25.0395 12.9771 24.4624 12.4 24.4624 11.6881C24.4624 10.9762 25.0395 10.399 25.7515 10.399C27.5781 10.399 29.0627 9.061 29.2888 7.36405C29.3829 6.65836 30.0312 6.16252 30.7369 6.25656Z" fill="white"/>
<path id="Vector (Stroke)_8" fill-rule="evenodd" clip-rule="evenodd" d="M24.4342 27.8064C24.4342 27.0945 25.0113 26.5173 25.7233 26.5173C29.3013 26.5173 32.2362 29.3785 32.2362 32.9498C32.2362 33.2623 32.2136 33.5703 32.1696 33.872C32.067 34.5765 31.4127 35.0645 30.7082 34.9619C30.0037 34.8593 29.5158 34.205 29.6184 33.5005C29.6445 33.3212 29.6581 33.1375 29.6581 32.9498C29.6581 30.84 27.9153 29.0955 25.7233 29.0955C25.0113 29.0955 24.4342 28.5183 24.4342 27.8064Z" fill="white"/>
</g>
</g>
</svg>
