<svg width="40" height="40" viewBox="0 0 40 40" fill="none" xmlns="http://www.w3.org/2000/svg">
<g id="language ">
<path id="Vector" d="M23.3333 10.0001H6.66667C6.22464 10.0001 5.80072 9.82449 5.48816 9.51193C5.17559 9.19937 5 8.77544 5 8.33342C5 7.89139 5.17559 7.46746 5.48816 7.1549C5.80072 6.84234 6.22464 6.66675 6.66667 6.66675H23.3333C23.7754 6.66675 24.1993 6.84234 24.5118 7.1549C24.8244 7.46746 25 7.89139 25 8.33342C25 8.77544 24.8244 9.19937 24.5118 9.51193C24.1993 9.82449 23.7754 10.0001 23.3333 10.0001Z" fill="white"/>
<path id="Vector_2" d="M15 9.99992C14.558 9.99992 14.1341 9.82432 13.8215 9.51176C13.509 9.1992 13.3334 8.77528 13.3334 8.33325V4.99992C13.3334 4.55789 13.509 4.13397 13.8215 3.82141C14.1341 3.50885 14.558 3.33325 15 3.33325C15.4421 3.33325 15.866 3.50885 16.1786 3.82141C16.4911 4.13397 16.6667 4.55789 16.6667 4.99992V8.33325C16.6667 8.77528 16.4911 9.1992 16.1786 9.51176C15.866 9.82432 15.4421 9.99992 15 9.99992Z" fill="white"/>
<path id="Vector_3" d="M8.33331 30.0001C7.98964 30.0003 7.65431 29.8942 7.37325 29.6965C7.09218 29.4987 6.87912 29.2189 6.76325 28.8954C6.64737 28.5718 6.63434 28.2204 6.72595 27.8891C6.81756 27.5579 7.00932 27.2631 7.27497 27.0451C9.94804 24.8573 12.1516 22.1521 13.7533 19.0917C15.5023 15.7367 16.4966 12.0398 16.6666 8.26007C16.6949 7.82124 16.8918 7.41035 17.2161 7.11338C17.5404 6.8164 17.967 6.65636 18.4066 6.66673C18.6256 6.67616 18.8405 6.72866 19.0391 6.82124C19.2378 6.91383 19.4162 7.04467 19.5642 7.20629C19.7122 7.36791 19.8268 7.55713 19.9016 7.76312C19.9764 7.9691 20.0098 8.18781 20 8.40673C19.8079 12.676 18.6838 16.8514 16.7066 20.6401C14.8994 24.0964 12.4117 27.1516 9.39331 29.6217C9.09453 29.8669 8.71982 30.0007 8.33331 30.0001Z" fill="white"/>
<path id="Vector_4" d="M31.6667 36.6668C31.2878 36.6663 30.9204 36.5368 30.6251 36.2996C30.3297 36.0624 30.1239 35.7316 30.0417 35.3618L27.25 22.8018C27.1795 22.4785 27.0005 22.1891 26.7428 21.9816C26.4851 21.774 26.1642 21.6609 25.8334 21.6609C25.5025 21.6609 25.1816 21.774 24.9239 21.9816C24.6662 22.1891 24.4872 22.4785 24.4167 22.8018L21.625 35.3618C21.5809 35.5788 21.494 35.7848 21.3694 35.9679C21.2448 36.1509 21.0849 36.3073 20.8992 36.4278C20.7135 36.5484 20.5056 36.6308 20.2877 36.6701C20.0697 36.7094 19.8462 36.7049 19.63 36.6568C19.4139 36.6088 19.2094 36.5181 19.0287 36.3902C18.848 36.2622 18.6946 36.0995 18.5774 35.9116C18.4603 35.7237 18.3817 35.5143 18.3464 35.2957C18.3111 35.0771 18.3197 34.8537 18.3717 34.6384L21.1667 22.0801C21.4037 21.0192 21.9951 20.0707 22.8434 19.391C23.6917 18.7112 24.7463 18.3408 25.8334 18.3408C26.9204 18.3408 27.975 18.7112 28.8233 19.391C29.6717 20.0707 30.2631 21.0192 30.5 22.0801L33.2917 34.6384C33.3875 35.0699 33.3081 35.5217 33.0709 35.8945C32.8337 36.2674 32.4581 36.5308 32.0267 36.6268C31.9085 36.6529 31.7878 36.6663 31.6667 36.6668Z" fill="white"/>
<path id="Vector_5" d="M16.6667 26.6666C16.3991 26.6669 16.1354 26.6023 15.8983 26.4783C13.6299 25.304 11.7015 23.5661 10.2983 21.4316C9.4283 20.0961 8.78255 18.6273 8.38665 17.0833C8.28692 16.6591 8.35727 16.2128 8.58263 15.8398C8.80798 15.4669 9.17043 15.1971 9.59231 15.0881C10.0142 14.9792 10.462 15.0397 10.8397 15.2569C11.2175 15.4741 11.4952 15.8305 11.6133 16.25C11.9185 17.4437 12.4173 18.5793 13.09 19.6116C14.1808 21.2651 15.6773 22.6113 17.4367 23.5216C17.7676 23.6939 18.0312 23.9723 18.1852 24.3122C18.3392 24.6521 18.3746 25.0339 18.2859 25.3963C18.1972 25.7587 17.9894 26.0809 17.6958 26.3112C17.4022 26.5416 17.0398 26.6667 16.6667 26.6666Z" fill="white"/>
<path id="Vector_6" d="M30 30.0001H21.6667C21.2246 30.0001 20.8007 29.8245 20.4882 29.5119C20.1756 29.1994 20 28.7754 20 28.3334C20 27.8914 20.1756 27.4675 20.4882 27.1549C20.8007 26.8423 21.2246 26.6667 21.6667 26.6667H30C30.442 26.6667 30.866 26.8423 31.1785 27.1549C31.4911 27.4675 31.6667 27.8914 31.6667 28.3334C31.6667 28.7754 31.4911 29.1994 31.1785 29.5119C30.866 29.8245 30.442 30.0001 30 30.0001Z" fill="white"/>
</g>
</svg>
