<svg width="20" height="21" viewBox="0 0 20 21" fill="none" xmlns="http://www.w3.org/2000/svg">
<path fill-rule="evenodd" clip-rule="evenodd" d="M12.001 3.14607C11.56 2.2597 10.8706 1.6062 9.99893 1.6062C9.12822 1.6062 8.43671 2.25858 7.99154 3.14427L6.52429 6.07878L6.52202 6.08337C6.47799 6.17325 6.37275 6.30116 6.21418 6.41873C6.05615 6.53591 5.90283 6.60004 5.80456 6.61695L5.80367 6.61711L3.14754 7.0584C2.18912 7.21814 1.38421 7.68456 1.12334 8.5015C0.862662 9.31784 1.2472 10.1644 1.93303 10.8502L3.9997 12.9169C4.08104 12.9982 4.17216 13.1515 4.22932 13.3511C4.28612 13.5495 4.29092 13.7295 4.26547 13.845L4.26511 13.8466L3.6744 16.4007C3.42811 17.4651 3.51353 18.5218 4.27116 19.0746C5.02832 19.6271 6.06135 19.3875 7.00228 18.8291L9.48928 17.3568L9.49085 17.3559C9.60271 17.2914 9.78694 17.2416 10.0031 17.2416C10.2208 17.2416 10.4013 17.2921 10.5063 17.3543L12.9983 18.8294C13.9403 19.3859 14.9746 19.6298 15.7317 19.0779C16.4899 18.5252 16.5712 17.4665 16.3257 16.4013L15.7348 13.8466L15.7345 13.845C15.709 13.7295 15.7138 13.5496 15.7706 13.3511C15.8278 13.1515 15.9189 12.9982 16.0002 12.9169L18.0654 10.8517L18.0663 10.8509C18.7564 10.1651 19.1421 9.31785 18.8794 8.50036C18.6169 7.68394 17.8105 7.21809 16.8527 7.05845L14.1944 6.61679" fill="#FF9B64"/>
</svg>
