<svg width="63" height="54" viewBox="0 0 63 54" fill="none" xmlns="http://www.w3.org/2000/svg">
<path d="M0.469674 48.5303C0.176779 48.2374 0.176775 47.7626 0.469666 47.4697L5.2426 42.6967C5.53549 42.4038 6.01036 42.4038 6.30326 42.6967C6.59615 42.9895 6.59616 43.4644 6.30327 43.7573L2.06066 48L6.30333 52.2426C6.59623 52.5355 6.59623 53.0104 6.30334 53.3033C6.01045 53.5962 5.53558 53.5962 5.24268 53.3033L0.469674 48.5303ZM23.9366 46.1447L24.0558 46.8851L23.9366 46.1447ZM57.0827 21.7437L57.7527 22.0808L57.0827 21.7437ZM61.25 1C61.25 0.585785 61.5858 0.25 62 0.25C62.4142 0.25 62.75 0.585785 62.75 1H61.25ZM0.999994 47.25C9.62325 47.2499 16.8167 46.5316 23.8173 45.4042L24.0558 46.8851C16.9874 48.0234 9.71359 48.7499 1.00001 48.75L0.999994 47.25ZM23.8173 45.4042C30.7336 44.2905 37.2921 41.5362 42.9571 37.3659L43.8464 38.5739C37.99 42.8851 31.2086 45.7333 24.0558 46.8851L23.8173 45.4042ZM42.9571 37.3659C48.6222 33.1955 53.2332 27.727 56.4127 21.4067L57.7527 22.0808C54.4676 28.6109 49.7027 34.2627 43.8464 38.5739L42.9571 37.3659ZM56.4127 21.4067C59.5923 15.0863 61.25 8.09362 61.25 1H62.75C62.75 8.32713 61.0378 15.5507 57.7527 22.0808L56.4127 21.4067Z" fill="#BABFF8"/>
</svg>
