<svg width="68" height="49" viewBox="0 0 68 49" fill="none" xmlns="http://www.w3.org/2000/svg">
<path d="M1.00001 0.25C0.585792 0.249997 0.250003 0.585781 0.25 0.999994C0.249997 1.41421 0.585781 1.75 0.999994 1.75L1.00001 0.25ZM23.9366 2.85532L24.0558 2.11486L23.9366 2.85532ZM57.0827 27.2563L57.7527 26.9192L57.0827 27.2563ZM61.4697 48.5303C61.7626 48.8232 62.2374 48.8232 62.5303 48.5303L67.3033 43.7574C67.5962 43.4645 67.5962 42.9896 67.3033 42.6967C67.0104 42.4038 66.5355 42.4038 66.2426 42.6967L62 46.9393L57.7574 42.6967C57.4645 42.4038 56.9896 42.4038 56.6967 42.6967C56.4038 42.9896 56.4038 43.4645 56.6967 43.7574L61.4697 48.5303ZM0.999994 1.75C9.62325 1.75007 16.8167 2.46843 23.8173 3.59578L24.0558 2.11486C16.9874 0.97659 9.71359 0.250069 1.00001 0.25L0.999994 1.75ZM23.8173 3.59578C30.7336 4.70954 37.2921 7.46375 42.9571 11.6341L43.8464 10.4261C37.99 6.11492 31.2086 3.2667 24.0558 2.11486L23.8173 3.59578ZM42.9571 11.6341C48.6222 15.8045 53.2332 21.273 56.4127 27.5933L57.7527 26.9192C54.4676 20.3891 49.7027 14.7373 43.8464 10.4261L42.9571 11.6341ZM56.4127 27.5933C59.5923 33.9137 61.25 40.9064 61.25 48H62.75C62.75 40.6729 61.0378 33.4493 57.7527 26.9192L56.4127 27.5933Z" fill="#BABFF8"/>
</svg>
