<svg width="58" height="53" viewBox="0 0 58 53" fill="none" xmlns="http://www.w3.org/2000/svg">
<g filter="url(#filter0_d_1401_935)">
<rect x="2.00269" y="0.00268555" width="54.1674" height="38.0051" rx="6.33419" fill="#F93939"/>
<path fill-rule="evenodd" clip-rule="evenodd" d="M38.1193 21.9241L35.122 23.4696L35.6947 20.1936L33.27 17.8702L36.6232 17.3888L38.1193 14.4092L39.6153 17.3913L42.9686 17.8727L40.5439 20.191L41.1165 23.4671" fill="white"/>
<path fill-rule="evenodd" clip-rule="evenodd" d="M26.5069 27.8732C31.4929 27.8732 35.5348 23.9029 35.5348 19.0053C35.5348 14.1077 31.4929 10.1375 26.5069 10.1375C21.5209 10.1375 17.479 14.1077 17.479 19.0053C17.479 23.9029 21.5209 27.8732 26.5069 27.8732ZM29.0863 25.3395C32.6459 25.3395 35.5348 22.5018 35.5348 19.0053C35.5348 15.5088 32.6459 12.6711 29.0863 12.6711C25.5267 12.6711 22.6378 15.5088 22.6378 19.0053C22.6378 22.5018 25.5267 25.3395 29.0863 25.3395Z" fill="white"/>
</g>
<defs>
<filter id="filter0_d_1401_935" x="0.419138" y="0.00268555" width="57.3343" height="52.2571" filterUnits="userSpaceOnUse" color-interpolation-filters="sRGB">
<feFlood flood-opacity="0" result="BackgroundImageFix"/>
<feColorMatrix in="SourceAlpha" type="matrix" values="0 0 0 0 0 0 0 0 0 0 0 0 0 0 0 0 0 0 127 0" result="hardAlpha"/>
<feMorphology radius="14.2519" operator="erode" in="SourceAlpha" result="effect1_dropShadow_1401_935"/>
<feOffset dy="12.6684"/>
<feGaussianBlur stdDeviation="7.91774"/>
<feColorMatrix type="matrix" values="0 0 0 0 0.976471 0 0 0 0 0.223529 0 0 0 0 0.223529 0 0 0 1 0"/>
<feBlend mode="normal" in2="BackgroundImageFix" result="effect1_dropShadow_1401_935"/>
<feBlend mode="normal" in="SourceGraphic" in2="effect1_dropShadow_1401_935" result="shape"/>
</filter>
</defs>
</svg>
