<svg width="682" height="320" viewBox="0 0 682 320" fill="none" xmlns="http://www.w3.org/2000/svg">
<g opacity="0.2">
<g clip-path="url(#clip0_1195_236)">
<circle cx="4" cy="4" r="4" fill="#BABFF8"/>
<circle cx="4" cy="28" r="4" fill="#BABFF8"/>
<circle cx="4" cy="52" r="4" fill="#BABFF8"/>
<circle cx="4" cy="76" r="4" fill="#BABFF8"/>
<circle cx="4" cy="100" r="4" fill="#BABFF8"/>
<circle cx="4" cy="124" r="4" fill="#BABFF8"/>
<circle cx="4" cy="148" r="4" fill="#BABFF8"/>
<circle cx="4" cy="172" r="4" fill="#BABFF8"/>
<circle cx="4" cy="196" r="4" fill="#BABFF8"/>
<circle cx="4" cy="220" r="4" fill="#BABFF8"/>
<circle cx="4" cy="244" r="4" fill="#BABFF8"/>
<circle cx="4" cy="268" r="4" fill="#BABFF8"/>
<circle cx="4" cy="292" r="4" fill="#BABFF8"/>
<circle cx="4" cy="316" r="4" fill="#BABFF8"/>
</g>
<g clip-path="url(#clip1_1195_236)">
<circle cx="28" cy="4" r="4" fill="#BABFF8"/>
<circle cx="28" cy="28" r="4" fill="#BABFF8"/>
<circle cx="28" cy="52" r="4" fill="#BABFF8"/>
<circle cx="28" cy="76" r="4" fill="#BABFF8"/>
<circle cx="28" cy="100" r="4" fill="#BABFF8"/>
<circle cx="28" cy="124" r="4" fill="#BABFF8"/>
<circle cx="28" cy="148" r="4" fill="#BABFF8"/>
<circle cx="28" cy="172" r="4" fill="#BABFF8"/>
<circle cx="28" cy="196" r="4" fill="#BABFF8"/>
<circle cx="28" cy="220" r="4" fill="#BABFF8"/>
<circle cx="28" cy="244" r="4" fill="#BABFF8"/>
<circle cx="28" cy="268" r="4" fill="#BABFF8"/>
<circle cx="28" cy="292" r="4" fill="#BABFF8"/>
<circle cx="28" cy="316" r="4" fill="#BABFF8"/>
</g>
<g clip-path="url(#clip2_1195_236)">
<circle cx="52" cy="4" r="4" fill="#BABFF8"/>
<circle cx="52" cy="28" r="4" fill="#BABFF8"/>
<circle cx="52" cy="52" r="4" fill="#BABFF8"/>
<circle cx="52" cy="76" r="4" fill="#BABFF8"/>
<circle cx="52" cy="100" r="4" fill="#BABFF8"/>
<circle cx="52" cy="124" r="4" fill="#BABFF8"/>
<circle cx="52" cy="148" r="4" fill="#BABFF8"/>
<circle cx="52" cy="172" r="4" fill="#BABFF8"/>
<circle cx="52" cy="196" r="4" fill="#BABFF8"/>
<circle cx="52" cy="220" r="4" fill="#BABFF8"/>
<circle cx="52" cy="244" r="4" fill="#BABFF8"/>
<circle cx="52" cy="268" r="4" fill="#BABFF8"/>
<circle cx="52" cy="292" r="4" fill="#BABFF8"/>
<circle cx="52" cy="316" r="4" fill="#BABFF8"/>
</g>
<g clip-path="url(#clip3_1195_236)">
<circle cx="76" cy="4" r="4" fill="#BABFF8"/>
<circle cx="76" cy="28" r="4" fill="#BABFF8"/>
<circle cx="76" cy="52" r="4" fill="#BABFF8"/>
<circle cx="76" cy="76" r="4" fill="#BABFF8"/>
<circle cx="76" cy="100" r="4" fill="#BABFF8"/>
<circle cx="76" cy="124" r="4" fill="#BABFF8"/>
<circle cx="76" cy="148" r="4" fill="#BABFF8"/>
<circle cx="76" cy="172" r="4" fill="#BABFF8"/>
<circle cx="76" cy="196" r="4" fill="#BABFF8"/>
<circle cx="76" cy="220" r="4" fill="#BABFF8"/>
<circle cx="76" cy="244" r="4" fill="#BABFF8"/>
<circle cx="76" cy="268" r="4" fill="#BABFF8"/>
<circle cx="76" cy="292" r="4" fill="#BABFF8"/>
<circle cx="76" cy="316" r="4" fill="#BABFF8"/>
</g>
<g clip-path="url(#clip4_1195_236)">
<circle cx="100" cy="4" r="4" fill="#BABFF8"/>
<circle cx="100" cy="28" r="4" fill="#BABFF8"/>
<circle cx="100" cy="52" r="4" fill="#BABFF8"/>
<circle cx="100" cy="76" r="4" fill="#BABFF8"/>
<circle cx="100" cy="100" r="4" fill="#BABFF8"/>
<circle cx="100" cy="124" r="4" fill="#BABFF8"/>
<circle cx="100" cy="148" r="4" fill="#BABFF8"/>
<circle cx="100" cy="172" r="4" fill="#BABFF8"/>
<circle cx="100" cy="196" r="4" fill="#BABFF8"/>
<circle cx="100" cy="220" r="4" fill="#BABFF8"/>
<circle cx="100" cy="244" r="4" fill="#BABFF8"/>
<circle cx="100" cy="268" r="4" fill="#BABFF8"/>
<circle cx="100" cy="292" r="4" fill="#BABFF8"/>
<circle cx="100" cy="316" r="4" fill="#BABFF8"/>
</g>
<g clip-path="url(#clip5_1195_236)">
<circle cx="124" cy="4" r="4" fill="#BABFF8"/>
<circle cx="124" cy="28" r="4" fill="#BABFF8"/>
<circle cx="124" cy="52" r="4" fill="#BABFF8"/>
<circle cx="124" cy="76" r="4" fill="#BABFF8"/>
<circle cx="124" cy="100" r="4" fill="#BABFF8"/>
<circle cx="124" cy="124" r="4" fill="#BABFF8"/>
<circle cx="124" cy="148" r="4" fill="#BABFF8"/>
<circle cx="124" cy="172" r="4" fill="#BABFF8"/>
<circle cx="124" cy="196" r="4" fill="#BABFF8"/>
<circle cx="124" cy="220" r="4" fill="#BABFF8"/>
<circle cx="124" cy="244" r="4" fill="#BABFF8"/>
<circle cx="124" cy="268" r="4" fill="#BABFF8"/>
<circle cx="124" cy="292" r="4" fill="#BABFF8"/>
<circle cx="124" cy="316" r="4" fill="#BABFF8"/>
</g>
<g clip-path="url(#clip6_1195_236)">
<circle cx="148" cy="4" r="4" fill="#BABFF8"/>
<circle cx="148" cy="28" r="4" fill="#BABFF8"/>
<circle cx="148" cy="52" r="4" fill="#BABFF8"/>
<circle cx="148" cy="76" r="4" fill="#BABFF8"/>
<circle cx="148" cy="100" r="4" fill="#BABFF8"/>
<circle cx="148" cy="124" r="4" fill="#BABFF8"/>
<circle cx="148" cy="148" r="4" fill="#BABFF8"/>
<circle cx="148" cy="172" r="4" fill="#BABFF8"/>
<circle cx="148" cy="196" r="4" fill="#BABFF8"/>
<circle cx="148" cy="220" r="4" fill="#BABFF8"/>
<circle cx="148" cy="244" r="4" fill="#BABFF8"/>
<circle cx="148" cy="268" r="4" fill="#BABFF8"/>
<circle cx="148" cy="292" r="4" fill="#BABFF8"/>
<circle cx="148" cy="316" r="4" fill="#BABFF8"/>
</g>
<g clip-path="url(#clip7_1195_236)">
<circle cx="172" cy="4" r="4" fill="#BABFF8"/>
<circle cx="172" cy="28" r="4" fill="#BABFF8"/>
<circle cx="172" cy="52" r="4" fill="#BABFF8"/>
<circle cx="172" cy="76" r="4" fill="#BABFF8"/>
<circle cx="172" cy="100" r="4" fill="#BABFF8"/>
<circle cx="172" cy="124" r="4" fill="#BABFF8"/>
<circle cx="172" cy="148" r="4" fill="#BABFF8"/>
<circle cx="172" cy="172" r="4" fill="#BABFF8"/>
<circle cx="172" cy="196" r="4" fill="#BABFF8"/>
<circle cx="172" cy="220" r="4" fill="#BABFF8"/>
<circle cx="172" cy="244" r="4" fill="#BABFF8"/>
<circle cx="172" cy="268" r="4" fill="#BABFF8"/>
<circle cx="172" cy="292" r="4" fill="#BABFF8"/>
<circle cx="172" cy="316" r="4" fill="#BABFF8"/>
</g>
<g clip-path="url(#clip8_1195_236)">
<circle cx="196" cy="4" r="4" fill="#BABFF8"/>
<circle cx="196" cy="28" r="4" fill="#BABFF8"/>
<circle cx="196" cy="52" r="4" fill="#BABFF8"/>
<circle cx="196" cy="76" r="4" fill="#BABFF8"/>
<circle cx="196" cy="100" r="4" fill="#BABFF8"/>
<circle cx="196" cy="124" r="4" fill="#BABFF8"/>
<circle cx="196" cy="148" r="4" fill="#BABFF8"/>
<circle cx="196" cy="172" r="4" fill="#BABFF8"/>
<circle cx="196" cy="196" r="4" fill="#BABFF8"/>
<circle cx="196" cy="220" r="4" fill="#BABFF8"/>
<circle cx="196" cy="244" r="4" fill="#BABFF8"/>
<circle cx="196" cy="268" r="4" fill="#BABFF8"/>
<circle cx="196" cy="292" r="4" fill="#BABFF8"/>
<circle cx="196" cy="316" r="4" fill="#BABFF8"/>
</g>
<g clip-path="url(#clip9_1195_236)">
<circle cx="220" cy="4" r="4" fill="#BABFF8"/>
<circle cx="220" cy="28" r="4" fill="#BABFF8"/>
<circle cx="220" cy="52" r="4" fill="#BABFF8"/>
<circle cx="220" cy="76" r="4" fill="#BABFF8"/>
<circle cx="220" cy="100" r="4" fill="#BABFF8"/>
<circle cx="220" cy="124" r="4" fill="#BABFF8"/>
<circle cx="220" cy="148" r="4" fill="#BABFF8"/>
<circle cx="220" cy="172" r="4" fill="#BABFF8"/>
<circle cx="220" cy="196" r="4" fill="#BABFF8"/>
<circle cx="220" cy="220" r="4" fill="#BABFF8"/>
<circle cx="220" cy="244" r="4" fill="#BABFF8"/>
<circle cx="220" cy="268" r="4" fill="#BABFF8"/>
<circle cx="220" cy="292" r="4" fill="#BABFF8"/>
<circle cx="220" cy="316" r="4" fill="#BABFF8"/>
</g>
<g clip-path="url(#clip10_1195_236)">
<circle cx="244" cy="4" r="4" fill="#BABFF8"/>
<circle cx="244" cy="28" r="4" fill="#BABFF8"/>
<circle cx="244" cy="52" r="4" fill="#BABFF8"/>
<circle cx="244" cy="76" r="4" fill="#BABFF8"/>
<circle cx="244" cy="100" r="4" fill="#BABFF8"/>
<circle cx="244" cy="124" r="4" fill="#BABFF8"/>
<circle cx="244" cy="148" r="4" fill="#BABFF8"/>
<circle cx="244" cy="172" r="4" fill="#BABFF8"/>
<circle cx="244" cy="196" r="4" fill="#BABFF8"/>
<circle cx="244" cy="220" r="4" fill="#BABFF8"/>
<circle cx="244" cy="244" r="4" fill="#BABFF8"/>
<circle cx="244" cy="268" r="4" fill="#BABFF8"/>
<circle cx="244" cy="292" r="4" fill="#BABFF8"/>
<circle cx="244" cy="316" r="4" fill="#BABFF8"/>
</g>
<g clip-path="url(#clip11_1195_236)">
<circle cx="268" cy="4" r="4" fill="#BABFF8"/>
<circle cx="268" cy="28" r="4" fill="#BABFF8"/>
<circle cx="268" cy="52" r="4" fill="#BABFF8"/>
<circle cx="268" cy="76" r="4" fill="#BABFF8"/>
<circle cx="268" cy="100" r="4" fill="#BABFF8"/>
<circle cx="268" cy="124" r="4" fill="#BABFF8"/>
<circle cx="268" cy="148" r="4" fill="#BABFF8"/>
<circle cx="268" cy="172" r="4" fill="#BABFF8"/>
<circle cx="268" cy="196" r="4" fill="#BABFF8"/>
<circle cx="268" cy="220" r="4" fill="#BABFF8"/>
<circle cx="268" cy="244" r="4" fill="#BABFF8"/>
<circle cx="268" cy="268" r="4" fill="#BABFF8"/>
<circle cx="268" cy="292" r="4" fill="#BABFF8"/>
<circle cx="268" cy="316" r="4" fill="#BABFF8"/>
</g>
<g clip-path="url(#clip12_1195_236)">
<circle cx="292" cy="4" r="4" fill="#BABFF8"/>
<circle cx="292" cy="28" r="4" fill="#BABFF8"/>
<circle cx="292" cy="52" r="4" fill="#BABFF8"/>
<circle cx="292" cy="76" r="4" fill="#BABFF8"/>
<circle cx="292" cy="100" r="4" fill="#BABFF8"/>
<circle cx="292" cy="124" r="4" fill="#BABFF8"/>
<circle cx="292" cy="148" r="4" fill="#BABFF8"/>
<circle cx="292" cy="172" r="4" fill="#BABFF8"/>
<circle cx="292" cy="196" r="4" fill="#BABFF8"/>
<circle cx="292" cy="220" r="4" fill="#BABFF8"/>
<circle cx="292" cy="244" r="4" fill="#BABFF8"/>
<circle cx="292" cy="268" r="4" fill="#BABFF8"/>
<circle cx="292" cy="292" r="4" fill="#BABFF8"/>
<circle cx="292" cy="316" r="4" fill="#BABFF8"/>
</g>
<g clip-path="url(#clip13_1195_236)">
<circle cx="316" cy="4" r="4" fill="#BABFF8"/>
<circle cx="316" cy="28" r="4" fill="#BABFF8"/>
<circle cx="316" cy="52" r="4" fill="#BABFF8"/>
<circle cx="316" cy="76" r="4" fill="#BABFF8"/>
<circle cx="316" cy="100" r="4" fill="#BABFF8"/>
<circle cx="316" cy="124" r="4" fill="#BABFF8"/>
<circle cx="316" cy="148" r="4" fill="#BABFF8"/>
<circle cx="316" cy="172" r="4" fill="#BABFF8"/>
<circle cx="316" cy="196" r="4" fill="#BABFF8"/>
<circle cx="316" cy="220" r="4" fill="#BABFF8"/>
<circle cx="316" cy="244" r="4" fill="#BABFF8"/>
<circle cx="316" cy="268" r="4" fill="#BABFF8"/>
<circle cx="316" cy="292" r="4" fill="#BABFF8"/>
<circle cx="316" cy="316" r="4" fill="#BABFF8"/>
</g>
<g clip-path="url(#clip14_1195_236)">
<circle cx="340" cy="4" r="4" fill="#BABFF8"/>
<circle cx="340" cy="28" r="4" fill="#BABFF8"/>
<circle cx="340" cy="52" r="4" fill="#BABFF8"/>
<circle cx="340" cy="76" r="4" fill="#BABFF8"/>
<circle cx="340" cy="100" r="4" fill="#BABFF8"/>
<circle cx="340" cy="124" r="4" fill="#BABFF8"/>
<circle cx="340" cy="148" r="4" fill="#BABFF8"/>
<circle cx="340" cy="172" r="4" fill="#BABFF8"/>
<circle cx="340" cy="196" r="4" fill="#BABFF8"/>
<circle cx="340" cy="220" r="4" fill="#BABFF8"/>
<circle cx="340" cy="244" r="4" fill="#BABFF8"/>
<circle cx="340" cy="268" r="4" fill="#BABFF8"/>
<circle cx="340" cy="292" r="4" fill="#BABFF8"/>
<circle cx="340" cy="316" r="4" fill="#BABFF8"/>
</g>
<g clip-path="url(#clip15_1195_236)">
<circle cx="364" cy="4" r="4" fill="#BABFF8"/>
<circle cx="364" cy="28" r="4" fill="#BABFF8"/>
<circle cx="364" cy="52" r="4" fill="#BABFF8"/>
<circle cx="364" cy="76" r="4" fill="#BABFF8"/>
<circle cx="364" cy="100" r="4" fill="#BABFF8"/>
<circle cx="364" cy="124" r="4" fill="#BABFF8"/>
<circle cx="364" cy="148" r="4" fill="#BABFF8"/>
<circle cx="364" cy="172" r="4" fill="#BABFF8"/>
<circle cx="364" cy="196" r="4" fill="#BABFF8"/>
<circle cx="364" cy="220" r="4" fill="#BABFF8"/>
<circle cx="364" cy="244" r="4" fill="#BABFF8"/>
<circle cx="364" cy="268" r="4" fill="#BABFF8"/>
<circle cx="364" cy="292" r="4" fill="#BABFF8"/>
<circle cx="364" cy="316" r="4" fill="#BABFF8"/>
</g>
<g clip-path="url(#clip16_1195_236)">
<circle cx="388" cy="4" r="4" fill="#BABFF8"/>
<circle cx="388" cy="28" r="4" fill="#BABFF8"/>
<circle cx="388" cy="52" r="4" fill="#BABFF8"/>
<circle cx="388" cy="76" r="4" fill="#BABFF8"/>
<circle cx="388" cy="100" r="4" fill="#BABFF8"/>
<circle cx="388" cy="124" r="4" fill="#BABFF8"/>
<circle cx="388" cy="148" r="4" fill="#BABFF8"/>
<circle cx="388" cy="172" r="4" fill="#BABFF8"/>
<circle cx="388" cy="196" r="4" fill="#BABFF8"/>
<circle cx="388" cy="220" r="4" fill="#BABFF8"/>
<circle cx="388" cy="244" r="4" fill="#BABFF8"/>
<circle cx="388" cy="268" r="4" fill="#BABFF8"/>
<circle cx="388" cy="292" r="4" fill="#BABFF8"/>
<circle cx="388" cy="316" r="4" fill="#BABFF8"/>
</g>
<g clip-path="url(#clip17_1195_236)">
<circle cx="412" cy="4" r="4" fill="#BABFF8"/>
<circle cx="412" cy="28" r="4" fill="#BABFF8"/>
<circle cx="412" cy="52" r="4" fill="#BABFF8"/>
<circle cx="412" cy="76" r="4" fill="#BABFF8"/>
<circle cx="412" cy="100" r="4" fill="#BABFF8"/>
<circle cx="412" cy="124" r="4" fill="#BABFF8"/>
<circle cx="412" cy="148" r="4" fill="#BABFF8"/>
<circle cx="412" cy="172" r="4" fill="#BABFF8"/>
<circle cx="412" cy="196" r="4" fill="#BABFF8"/>
<circle cx="412" cy="220" r="4" fill="#BABFF8"/>
<circle cx="412" cy="244" r="4" fill="#BABFF8"/>
<circle cx="412" cy="268" r="4" fill="#BABFF8"/>
<circle cx="412" cy="292" r="4" fill="#BABFF8"/>
<circle cx="412" cy="316" r="4" fill="#BABFF8"/>
</g>
<g clip-path="url(#clip18_1195_236)">
<circle cx="436" cy="4" r="4" fill="#BABFF8"/>
<circle cx="436" cy="28" r="4" fill="#BABFF8"/>
<circle cx="436" cy="52" r="4" fill="#BABFF8"/>
<circle cx="436" cy="76" r="4" fill="#BABFF8"/>
<circle cx="436" cy="100" r="4" fill="#BABFF8"/>
<circle cx="436" cy="124" r="4" fill="#BABFF8"/>
<circle cx="436" cy="148" r="4" fill="#BABFF8"/>
<circle cx="436" cy="172" r="4" fill="#BABFF8"/>
<circle cx="436" cy="196" r="4" fill="#BABFF8"/>
<circle cx="436" cy="220" r="4" fill="#BABFF8"/>
<circle cx="436" cy="244" r="4" fill="#BABFF8"/>
<circle cx="436" cy="268" r="4" fill="#BABFF8"/>
<circle cx="436" cy="292" r="4" fill="#BABFF8"/>
<circle cx="436" cy="316" r="4" fill="#BABFF8"/>
</g>
<g clip-path="url(#clip19_1195_236)">
<circle cx="460" cy="4" r="4" fill="#BABFF8"/>
<circle cx="460" cy="28" r="4" fill="#BABFF8"/>
<circle cx="460" cy="52" r="4" fill="#BABFF8"/>
<circle cx="460" cy="76" r="4" fill="#BABFF8"/>
<circle cx="460" cy="100" r="4" fill="#BABFF8"/>
<circle cx="460" cy="124" r="4" fill="#BABFF8"/>
<circle cx="460" cy="148" r="4" fill="#BABFF8"/>
<circle cx="460" cy="172" r="4" fill="#BABFF8"/>
<circle cx="460" cy="196" r="4" fill="#BABFF8"/>
<circle cx="460" cy="220" r="4" fill="#BABFF8"/>
<circle cx="460" cy="244" r="4" fill="#BABFF8"/>
<circle cx="460" cy="268" r="4" fill="#BABFF8"/>
<circle cx="460" cy="292" r="4" fill="#BABFF8"/>
<circle cx="460" cy="316" r="4" fill="#BABFF8"/>
</g>
<g clip-path="url(#clip20_1195_236)">
<circle cx="484" cy="4" r="4" fill="#BABFF8"/>
<circle cx="484" cy="28" r="4" fill="#BABFF8"/>
<circle cx="484" cy="52" r="4" fill="#BABFF8"/>
<circle cx="484" cy="76" r="4" fill="#BABFF8"/>
<circle cx="484" cy="100" r="4" fill="#BABFF8"/>
<circle cx="484" cy="124" r="4" fill="#BABFF8"/>
<circle cx="484" cy="148" r="4" fill="#BABFF8"/>
<circle cx="484" cy="172" r="4" fill="#BABFF8"/>
<circle cx="484" cy="196" r="4" fill="#BABFF8"/>
<circle cx="484" cy="220" r="4" fill="#BABFF8"/>
<circle cx="484" cy="244" r="4" fill="#BABFF8"/>
<circle cx="484" cy="268" r="4" fill="#BABFF8"/>
<circle cx="484" cy="292" r="4" fill="#BABFF8"/>
<circle cx="484" cy="316" r="4" fill="#BABFF8"/>
</g>
<g clip-path="url(#clip21_1195_236)">
<circle cx="508" cy="4" r="4" fill="#BABFF8"/>
<circle cx="508" cy="28" r="4" fill="#BABFF8"/>
<circle cx="508" cy="52" r="4" fill="#BABFF8"/>
<circle cx="508" cy="76" r="4" fill="#BABFF8"/>
<circle cx="508" cy="100" r="4" fill="#BABFF8"/>
<circle cx="508" cy="124" r="4" fill="#BABFF8"/>
<circle cx="508" cy="148" r="4" fill="#BABFF8"/>
<circle cx="508" cy="172" r="4" fill="#BABFF8"/>
<circle cx="508" cy="196" r="4" fill="#BABFF8"/>
<circle cx="508" cy="220" r="4" fill="#BABFF8"/>
<circle cx="508" cy="244" r="4" fill="#BABFF8"/>
<circle cx="508" cy="268" r="4" fill="#BABFF8"/>
<circle cx="508" cy="292" r="4" fill="#BABFF8"/>
<circle cx="508" cy="316" r="4" fill="#BABFF8"/>
</g>
<g clip-path="url(#clip22_1195_236)">
<circle cx="532" cy="4" r="4" fill="#BABFF8"/>
<circle cx="532" cy="28" r="4" fill="#BABFF8"/>
<circle cx="532" cy="52" r="4" fill="#BABFF8"/>
<circle cx="532" cy="76" r="4" fill="#BABFF8"/>
<circle cx="532" cy="100" r="4" fill="#BABFF8"/>
<circle cx="532" cy="124" r="4" fill="#BABFF8"/>
<circle cx="532" cy="148" r="4" fill="#BABFF8"/>
<circle cx="532" cy="172" r="4" fill="#BABFF8"/>
<circle cx="532" cy="196" r="4" fill="#BABFF8"/>
<circle cx="532" cy="220" r="4" fill="#BABFF8"/>
<circle cx="532" cy="244" r="4" fill="#BABFF8"/>
<circle cx="532" cy="268" r="4" fill="#BABFF8"/>
<circle cx="532" cy="292" r="4" fill="#BABFF8"/>
<circle cx="532" cy="316" r="4" fill="#BABFF8"/>
</g>
<g clip-path="url(#clip23_1195_236)">
<circle cx="556" cy="4" r="4" fill="#BABFF8"/>
<circle cx="556" cy="28" r="4" fill="#BABFF8"/>
<circle cx="556" cy="52" r="4" fill="#BABFF8"/>
<circle cx="556" cy="76" r="4" fill="#BABFF8"/>
<circle cx="556" cy="100" r="4" fill="#BABFF8"/>
<circle cx="556" cy="124" r="4" fill="#BABFF8"/>
<circle cx="556" cy="148" r="4" fill="#BABFF8"/>
<circle cx="556" cy="172" r="4" fill="#BABFF8"/>
<circle cx="556" cy="196" r="4" fill="#BABFF8"/>
<circle cx="556" cy="220" r="4" fill="#BABFF8"/>
<circle cx="556" cy="244" r="4" fill="#BABFF8"/>
<circle cx="556" cy="268" r="4" fill="#BABFF8"/>
<circle cx="556" cy="292" r="4" fill="#BABFF8"/>
<circle cx="556" cy="316" r="4" fill="#BABFF8"/>
</g>
<g clip-path="url(#clip24_1195_236)">
<circle cx="580" cy="4" r="4" fill="#BABFF8"/>
<circle cx="580" cy="28" r="4" fill="#BABFF8"/>
<circle cx="580" cy="52" r="4" fill="#BABFF8"/>
<circle cx="580" cy="76" r="4" fill="#BABFF8"/>
<circle cx="580" cy="100" r="4" fill="#BABFF8"/>
<circle cx="580" cy="124" r="4" fill="#BABFF8"/>
<circle cx="580" cy="148" r="4" fill="#BABFF8"/>
<circle cx="580" cy="172" r="4" fill="#BABFF8"/>
<circle cx="580" cy="196" r="4" fill="#BABFF8"/>
<circle cx="580" cy="220" r="4" fill="#BABFF8"/>
<circle cx="580" cy="244" r="4" fill="#BABFF8"/>
<circle cx="580" cy="268" r="4" fill="#BABFF8"/>
<circle cx="580" cy="292" r="4" fill="#BABFF8"/>
<circle cx="580" cy="316" r="4" fill="#BABFF8"/>
</g>
<g clip-path="url(#clip25_1195_236)">
<circle cx="604" cy="4" r="4" fill="#BABFF8"/>
<circle cx="604" cy="28" r="4" fill="#BABFF8"/>
<circle cx="604" cy="52" r="4" fill="#BABFF8"/>
<circle cx="604" cy="76" r="4" fill="#BABFF8"/>
<circle cx="604" cy="100" r="4" fill="#BABFF8"/>
<circle cx="604" cy="124" r="4" fill="#BABFF8"/>
<circle cx="604" cy="148" r="4" fill="#BABFF8"/>
<circle cx="604" cy="172" r="4" fill="#BABFF8"/>
<circle cx="604" cy="196" r="4" fill="#BABFF8"/>
<circle cx="604" cy="220" r="4" fill="#BABFF8"/>
<circle cx="604" cy="244" r="4" fill="#BABFF8"/>
<circle cx="604" cy="268" r="4" fill="#BABFF8"/>
<circle cx="604" cy="292" r="4" fill="#BABFF8"/>
<circle cx="604" cy="316" r="4" fill="#BABFF8"/>
</g>
<g clip-path="url(#clip26_1195_236)">
<circle cx="628" cy="4" r="4" fill="#BABFF8"/>
<circle cx="628" cy="28" r="4" fill="#BABFF8"/>
<circle cx="628" cy="52" r="4" fill="#BABFF8"/>
<circle cx="628" cy="76" r="4" fill="#BABFF8"/>
<circle cx="628" cy="100" r="4" fill="#BABFF8"/>
<circle cx="628" cy="124" r="4" fill="#BABFF8"/>
<circle cx="628" cy="148" r="4" fill="#BABFF8"/>
<circle cx="628" cy="172" r="4" fill="#BABFF8"/>
<circle cx="628" cy="196" r="4" fill="#BABFF8"/>
<circle cx="628" cy="220" r="4" fill="#BABFF8"/>
<circle cx="628" cy="244" r="4" fill="#BABFF8"/>
<circle cx="628" cy="268" r="4" fill="#BABFF8"/>
<circle cx="628" cy="292" r="4" fill="#BABFF8"/>
<circle cx="628" cy="316" r="4" fill="#BABFF8"/>
</g>
<g clip-path="url(#clip27_1195_236)">
<circle cx="652" cy="4" r="4" fill="#BABFF8"/>
<circle cx="652" cy="28" r="4" fill="#BABFF8"/>
<circle cx="652" cy="52" r="4" fill="#BABFF8"/>
<circle cx="652" cy="76" r="4" fill="#BABFF8"/>
<circle cx="652" cy="100" r="4" fill="#BABFF8"/>
<circle cx="652" cy="124" r="4" fill="#BABFF8"/>
<circle cx="652" cy="148" r="4" fill="#BABFF8"/>
<circle cx="652" cy="172" r="4" fill="#BABFF8"/>
<circle cx="652" cy="196" r="4" fill="#BABFF8"/>
<circle cx="652" cy="220" r="4" fill="#BABFF8"/>
<circle cx="652" cy="244" r="4" fill="#BABFF8"/>
<circle cx="652" cy="268" r="4" fill="#BABFF8"/>
<circle cx="652" cy="292" r="4" fill="#BABFF8"/>
<circle cx="652" cy="316" r="4" fill="#BABFF8"/>
</g>
<g clip-path="url(#clip28_1195_236)">
<circle cx="676" cy="4" r="4" fill="#BABFF8"/>
<circle cx="676" cy="28" r="4" fill="#BABFF8"/>
<circle cx="676" cy="52" r="4" fill="#BABFF8"/>
<circle cx="676" cy="76" r="4" fill="#BABFF8"/>
<circle cx="676" cy="100" r="4" fill="#BABFF8"/>
<circle cx="676" cy="124" r="4" fill="#BABFF8"/>
<circle cx="676" cy="148" r="4" fill="#BABFF8"/>
<circle cx="676" cy="172" r="4" fill="#BABFF8"/>
<circle cx="676" cy="196" r="4" fill="#BABFF8"/>
<circle cx="676" cy="220" r="4" fill="#BABFF8"/>
<circle cx="676" cy="244" r="4" fill="#BABFF8"/>
<circle cx="676" cy="268" r="4" fill="#BABFF8"/>
<circle cx="676" cy="292" r="4" fill="#BABFF8"/>
<circle cx="676" cy="316" r="4" fill="#BABFF8"/>
</g>
</g>
<defs>
<clipPath id="clip0_1195_236">
<rect width="8" height="320" fill="white"/>
</clipPath>
<clipPath id="clip1_1195_236">
<rect width="8" height="320" fill="white" transform="translate(24)"/>
</clipPath>
<clipPath id="clip2_1195_236">
<rect width="8" height="320" fill="white" transform="translate(48)"/>
</clipPath>
<clipPath id="clip3_1195_236">
<rect width="8" height="320" fill="white" transform="translate(72)"/>
</clipPath>
<clipPath id="clip4_1195_236">
<rect width="8" height="320" fill="white" transform="translate(96)"/>
</clipPath>
<clipPath id="clip5_1195_236">
<rect width="8" height="320" fill="white" transform="translate(120)"/>
</clipPath>
<clipPath id="clip6_1195_236">
<rect width="8" height="320" fill="white" transform="translate(144)"/>
</clipPath>
<clipPath id="clip7_1195_236">
<rect width="8" height="320" fill="white" transform="translate(168)"/>
</clipPath>
<clipPath id="clip8_1195_236">
<rect width="8" height="320" fill="white" transform="translate(192)"/>
</clipPath>
<clipPath id="clip9_1195_236">
<rect width="8" height="320" fill="white" transform="translate(216)"/>
</clipPath>
<clipPath id="clip10_1195_236">
<rect width="8" height="320" fill="white" transform="translate(240)"/>
</clipPath>
<clipPath id="clip11_1195_236">
<rect width="8" height="320" fill="white" transform="translate(264)"/>
</clipPath>
<clipPath id="clip12_1195_236">
<rect width="8" height="320" fill="white" transform="translate(288)"/>
</clipPath>
<clipPath id="clip13_1195_236">
<rect width="8" height="320" fill="white" transform="translate(312)"/>
</clipPath>
<clipPath id="clip14_1195_236">
<rect width="8" height="320" fill="white" transform="translate(336)"/>
</clipPath>
<clipPath id="clip15_1195_236">
<rect width="8" height="320" fill="white" transform="translate(360)"/>
</clipPath>
<clipPath id="clip16_1195_236">
<rect width="8" height="320" fill="white" transform="translate(384)"/>
</clipPath>
<clipPath id="clip17_1195_236">
<rect width="8" height="320" fill="white" transform="translate(408)"/>
</clipPath>
<clipPath id="clip18_1195_236">
<rect width="8" height="320" fill="white" transform="translate(432)"/>
</clipPath>
<clipPath id="clip19_1195_236">
<rect width="8" height="320" fill="white" transform="translate(456)"/>
</clipPath>
<clipPath id="clip20_1195_236">
<rect width="8" height="320" fill="white" transform="translate(480)"/>
</clipPath>
<clipPath id="clip21_1195_236">
<rect width="8" height="320" fill="white" transform="translate(504)"/>
</clipPath>
<clipPath id="clip22_1195_236">
<rect width="8" height="320" fill="white" transform="translate(528)"/>
</clipPath>
<clipPath id="clip23_1195_236">
<rect width="8" height="320" fill="white" transform="translate(552)"/>
</clipPath>
<clipPath id="clip24_1195_236">
<rect width="8" height="320" fill="white" transform="translate(576)"/>
</clipPath>
<clipPath id="clip25_1195_236">
<rect width="8" height="320" fill="white" transform="translate(600)"/>
</clipPath>
<clipPath id="clip26_1195_236">
<rect width="8" height="320" fill="white" transform="translate(624)"/>
</clipPath>
<clipPath id="clip27_1195_236">
<rect width="8" height="320" fill="white" transform="translate(648)"/>
</clipPath>
<clipPath id="clip28_1195_236">
<rect width="8" height="320" fill="white" transform="translate(672)"/>
</clipPath>
</defs>
</svg>
