<svg width="73" height="66" viewBox="0 0 73 66" fill="none" xmlns="http://www.w3.org/2000/svg">
<g filter="url(#filter0_d_1401_984)">
<g clip-path="url(#clip0_1401_984)">
<rect x="2" width="68.4127" height="48" rx="8" fill="white"/>
<path fill-rule="evenodd" clip-rule="evenodd" d="M2 0H31.3197V22.4H2V0Z" fill="#1A47B8"/>
<path fill-rule="evenodd" clip-rule="evenodd" d="M31.3197 0V3.2H70.4127V0H31.3197ZM31.3197 6.4V9.6H70.4127V6.4H31.3197ZM31.3197 12.8V16H70.4127V12.8H31.3197ZM31.3197 19.2V22.4H70.4127V19.2H31.3197ZM2 25.6V28.8H70.4127V25.6H2ZM2 32V35.2H70.4127V32H2ZM2 38.4V41.6H70.4127V38.4H2ZM2 44.8V48H70.4127V44.8H2Z" fill="#F93939"/>
<path fill-rule="evenodd" clip-rule="evenodd" d="M5.25781 3.19995V6.39995H8.51556V3.19995H5.25781ZM11.7733 3.19995V6.39995H15.0311V3.19995H11.7733ZM18.2888 3.19995V6.39995H21.5465V3.19995H18.2888ZM24.8043 3.19995V6.39995H28.062V3.19995H24.8043ZM21.5465 6.39995V9.59995H24.8043V6.39995H21.5465ZM15.0311 6.39995V9.59995H18.2888V6.39995H15.0311ZM8.51556 6.39995V9.59995H11.7733V6.39995H8.51556ZM5.25781 9.59995V12.8H8.51556V9.59995H5.25781ZM11.7733 9.59995V12.8H15.0311V9.59995H11.7733ZM18.2888 9.59995V12.8H21.5465V9.59995H18.2888ZM24.8043 9.59995V12.8H28.062V9.59995H24.8043ZM5.25781 16V19.2H8.51556V16H5.25781ZM11.7733 16V19.2H15.0311V16H11.7733ZM18.2888 16V19.2H21.5465V16H18.2888ZM24.8043 16V19.2H28.062V16H24.8043ZM21.5465 12.8V16H24.8043V12.8H21.5465ZM15.0311 12.8V16H18.2888V12.8H15.0311ZM8.51556 12.8V16H11.7733V12.8H8.51556Z" fill="white"/>
</g>
</g>
<defs>
<filter id="filter0_d_1401_984" x="0" y="0" width="72.4127" height="66" filterUnits="userSpaceOnUse" color-interpolation-filters="sRGB">
<feFlood flood-opacity="0" result="BackgroundImageFix"/>
<feColorMatrix in="SourceAlpha" type="matrix" values="0 0 0 0 0 0 0 0 0 0 0 0 0 0 0 0 0 0 127 0" result="hardAlpha"/>
<feMorphology radius="18" operator="erode" in="SourceAlpha" result="effect1_dropShadow_1401_984"/>
<feOffset dy="16"/>
<feGaussianBlur stdDeviation="10"/>
<feColorMatrix type="matrix" values="0 0 0 0 0.858333 0 0 0 0 0.196701 0 0 0 0 0.196701 0 0 0 1 0"/>
<feBlend mode="normal" in2="BackgroundImageFix" result="effect1_dropShadow_1401_984"/>
<feBlend mode="normal" in="SourceGraphic" in2="effect1_dropShadow_1401_984" result="shape"/>
</filter>
<clipPath id="clip0_1401_984">
<rect x="2" width="68.4127" height="48" rx="8" fill="white"/>
</clipPath>
</defs>
</svg>
